<?xml version="1.0" encoding="UTF-8"?>
<svg version="1.1" viewBox="0 0 1251 1353" width="1280" height="1280" xmlns="http://www.w3.org/2000/svg">
<path transform="translate(616,194)" d="m0 0 18 1 17 4 15 6 24 14 22 12 115 65 25 14 21 12 25 14 21 12 25 14 24 14 22 12 22 13 14 12 10 11 9 14 7 16 4 17v406l-4 18-7 17-10 15-11 12-13 10-26 15-27 16-22 13-29 17-25 15-24 14-22 13-29 17-25 15-24 14-22 13-29 17-25 15-15 8-15 5-9 2-9 1h-14l-18-3-17-6-22-12-24-14-22-12-24-14-24-13-21-12-69-39-25-14-21-12-25-14-21-12-25-14-21-12-19-11-12-11-9-14-4-10-2-9v-428l4-18 5-13 7-13 9-11 7-7 13-9 58-34 25-15 24-14 22-13 29-17 25-15 24-14 22-13 29-17 25-15 53-31 16-6 14-3z" fill="#3CDB83"/>
<path transform="translate(1038,430)" d="m0 0 3 1 8 15 5 15 2 10v406l-4 18-7 17-10 15-11 12-13 10-26 15-27 16-22 13-29 17-25 15-24 14-22 13-29 17-25 15-24 14-22 13-29 17-25 15-15 8-15 5-9 2-9 1h-14v-1h8v-286h-9l-11-4-29-16-21-12-25-14-24-14-22-12-24-14-7-6-4-8-1-3v-177l4-12 7-9 9-7 21-12 25-15 24-14 22-13 29-17 13-8 9-3 12-1 10 2 16 8 24 14 22 12 24 14 22 12 23 13 15 9 9 8 4 4 35-23 32-19 15-9 54-32 28-17 29-17 28-17z" fill="#4284F4"/>
<path transform="translate(204,442)" d="m0 0 5 1 21 12 27 15 23 13 27 15 23 13 27 15 23 13 25 14 22 13 21 13 6 4-2 9v177l4 9 5 6 69 39 25 14 21 12 25 14 11 6 7 2 9 1v286h-16l-17-4-18-8-21-12-69-39-25-14-21-12-25-14-21-12-25-14-24-14-22-12-24-14-22-12-24-14-24-13-13-9-7-7-9-14-4-10-2-9v-428l4-18z" fill="#083042"/>
<path transform="translate(620,481)" d="m0 0 13 1 12 5 21 12 25 14 21 12 25 14 21 12 23 13 10 9 7 11 2 8v167l-3 10-6 10-9 8-24 14-22 13-29 17-25 15-24 14-16 9-10 3h-13l-11-4-29-16-21-12-25-14-24-14-22-12-24-14-7-6-4-8-1-3v-177l4-12 7-9 9-7 21-12 25-15 24-14 22-13 29-17 13-8 9-3z" fill="#D5EFFE"/>
<path transform="translate(612,385)" d="m0 0h20l14 4 17 9 24 14 22 12 115 65 25 14 11 7 10 9 5 6 2 2-29 17-23 14-30 20-5-5-9-8-27-15-24-14-22-12-24-14-22-12-23-13-6-2-13-1-12 3-11 6-26 15-25 15-24 14-44 26-14 9-6 7-3 6-5-2-22-13-16-10-27-15-14-8 1-5 7-9 5-5 8-6 24-14 22-13 29-17 25-15 24-14 22-13 29-17 25-15 12-5z" fill="#37BF6E"/>
<path transform="translate(370,535)" d="m0 0 4 1 24 13 24 14 26 16 6 4-2 9v177l4 9 5 6 69 39 25 14 21 12 25 14 11 6 7 2 9 1v97l-13-1-15-5-27-15-24-14-24-13-21-12-69-39-25-14-21-12-11-7-7-8-5-10-1-4v-264l4-15z" fill="#041619"/>
<path transform="translate(875,527)" d="m0 0h2l6 12 3 11v250l-4 15-7 12-6 7-12 9-26 15-20 12-27 16-24 14-15 9-24 14-15 9-24 14-27 16-9 4-7 2-11 1v-97l12-3 15-8 27-16 29-17 25-15 24-14 25-15 8-9 5-11 1-5v-167l-3-9-2-5 36-24 32-19z" fill="#3870B2"/>
</svg>
