<svg width="300" height="300" viewBox="0 0 300 300" fill="none" xmlns="http://www.w3.org/2000/svg">
<g clip-path="url(#clip0_404_560)">
<rect width="300" height="300" fill="#093042"/>
<path opacity="0.2" d="M-54.0587 -10.8469C-50.8641 -13.7796 -46.3358 -14.7606 -42.214 -13.4129L13.9627 4.95559C18.0141 6.28031 21.0588 9.65481 21.9612 13.8207L34.6577 72.4295C35.5602 76.5954 34.185 80.9273 31.045 83.81L-12.4938 123.78C-15.6884 126.713 -20.2166 127.694 -24.3385 126.346L-80.5152 107.977C-84.5666 106.653 -87.6112 103.278 -88.5137 99.1122L-101.21 40.5035C-102.113 36.3376 -100.737 32.0056 -97.5975 29.123L-54.0587 -10.8469Z" fill="#4285F4"/>
<path opacity="0.3" d="M238.941 183.153C242.136 180.22 246.664 179.239 250.786 180.587L306.963 198.956C311.014 200.28 314.059 203.655 314.961 207.821L327.658 266.429C328.56 270.595 327.185 274.927 324.045 277.81L280.506 317.78C277.312 320.713 272.783 321.694 268.662 320.346L212.485 301.977C208.433 300.653 205.389 297.278 204.486 293.112L191.79 234.503C190.887 230.338 192.263 226.006 195.403 223.123L238.941 183.153Z" fill="#041619"/>
<path d="M208.25 53.25V72.5M92.75 53.25V72.5M150.462 159.125H150.538M150.462 197.625H150.538M188.913 159.125H189M112 159.125H112.087M112 197.625H112.087M68.6875 111H232.312M63.875 111H237.125M59.0625 151.839C59.0625 109.903 59.0625 88.9299 71.113 75.8976C83.1635 62.875 102.568 62.875 141.356 62.875H159.644C198.432 62.875 217.836 62.875 229.887 75.9073C241.937 88.9299 241.938 109.903 241.938 151.849V156.786C241.938 198.722 241.937 219.695 229.887 232.727C217.836 245.75 198.432 245.75 159.644 245.75H141.356C102.568 245.75 83.1635 245.75 71.113 232.718C59.0625 219.695 59.0625 198.722 59.0625 156.776V151.839Z" stroke="#3DDC84" stroke-width="10" stroke-linecap="round" stroke-linejoin="round"/>
<rect width="93" height="93" transform="translate(104 127)" fill="#093042"/>
<circle cx="109.5" cy="148.5" r="5.5" fill="#3DDC84"/>
<circle cx="150.5" cy="148.5" r="5.5" fill="#3DDC84"/>
<circle cx="191.5" cy="148.5" r="5.5" fill="#3DDC84"/>
<circle cx="109.5" cy="173.5" r="5.5" fill="#3DDC84"/>
<circle cx="150.5" cy="173.5" r="5.5" fill="#3DDC84"/>
<circle cx="191.5" cy="173.5" r="5.5" fill="#3DDC84"/>
<circle cx="109.5" cy="198.5" r="5.5" fill="#3DDC84"/>
<circle cx="150.5" cy="198.5" r="5.5" fill="#3DDC84"/>
</g>
<defs>
<clipPath id="clip0_404_560">
<rect width="300" height="300" fill="white"/>
</clipPath>
</defs>
</svg>
