<svg width="300" height="300" viewBox="0 0 300 300" fill="none" xmlns="http://www.w3.org/2000/svg">
<rect width="300" height="300" fill="#A86667"/>
<path d="M208.25 220.25C220.233 224.331 227.5 229.702 227.5 235.583C227.5 248.384 193.023 258.75 150.5 258.75C107.977 258.75 73.5 248.374 73.5 235.583C73.5 229.702 80.7669 224.331 92.75 220.25" stroke="white" stroke-width="10" stroke-linecap="round" stroke-linejoin="round"/>
<path d="M166.073 233.657C161.841 237.586 156.275 239.764 150.5 239.75C144.728 239.761 139.167 237.584 134.936 233.657C96.7155 197.65 45.4912 157.427 70.4681 99.0325C83.9912 67.4625 116.408 47.25 150.51 47.25C184.611 47.25 217.038 67.4625 230.541 99.0325C255.489 157.36 204.39 197.775 166.073 233.657Z" stroke="white" stroke-width="10" stroke-linecap="round" stroke-linejoin="round"/>
<mask id="path-3-inside-1_409_560" fill="white">
<path d="M125.359 103.373C134.397 98.099 142.28 100.226 147.016 103.614C148.96 105 149.932 105.693 150.5 105.693C151.077 105.693 152.04 105 153.984 103.614C158.72 100.226 166.603 98.099 175.64 103.373C187.498 110.303 190.174 133.153 162.839 152.432C157.622 156.099 155.014 157.938 150.5 157.938C145.986 157.938 143.377 156.109 138.17 152.432C110.826 133.153 113.501 110.294 125.369 103.364"/>
</mask>
<path d="M110.238 77.4631C95.9283 85.8144 91.0978 104.185 99.4491 118.495C107.8 132.805 126.171 137.635 140.481 129.284L110.238 77.4631ZM147.016 103.614L129.56 128.013C129.574 128.023 129.588 128.033 129.601 128.042L147.016 103.614ZM153.984 103.614L171.398 128.042C171.412 128.033 171.426 128.023 171.44 128.013L153.984 103.614ZM175.64 103.373L190.778 77.4723C190.772 77.4693 190.767 77.4662 190.762 77.4631L175.64 103.373ZM162.839 152.432L180.092 176.975C180.104 176.966 180.117 176.957 180.13 176.948L162.839 152.432ZM138.17 152.432L155.474 127.926C155.469 127.921 155.463 127.917 155.457 127.913L138.17 152.432ZM140.497 129.27C154.805 120.915 159.63 102.544 151.276 88.236C142.921 73.9282 124.549 69.1025 110.241 77.4574L140.497 129.27ZM125.359 103.373L140.481 129.284C139.943 129.597 138.091 130.365 135.404 130.149C133.028 129.959 131.064 129.089 129.56 128.013L147.016 103.614L164.472 79.2155C151.459 69.9059 130.832 65.4446 110.238 77.4631L125.359 103.373ZM147.016 103.614L129.601 128.042C130.221 128.484 131.873 129.68 133.429 130.647C134.26 131.165 135.945 132.18 138.135 133.122C140.111 133.972 144.578 135.693 150.5 135.693V105.693V75.6931C156.138 75.6931 160.27 77.3277 161.844 78.0048C163.631 78.7735 164.845 79.5285 165.119 79.6994C165.561 79.974 165.755 80.1302 164.43 79.1858L147.016 103.614ZM150.5 105.693V135.693C156.37 135.693 160.811 134.005 162.847 133.131C165.062 132.18 166.764 131.153 167.6 130.632C169.147 129.667 170.815 128.458 171.398 128.042L153.984 103.614L136.57 79.1858C135.209 80.1559 135.424 79.9864 135.859 79.7148C136.14 79.5401 137.37 78.7728 139.182 77.9952C140.815 77.2944 144.919 75.6931 150.5 75.6931V105.693ZM153.984 103.614L171.44 128.013C169.935 129.089 167.972 129.959 165.596 130.149C162.909 130.365 161.057 129.597 160.519 129.284L175.64 103.373L190.762 77.4631C170.168 65.4446 149.541 69.9059 136.528 79.2155L153.984 103.614ZM175.64 103.373L160.503 129.275C154.324 125.663 154.072 120.212 154.23 119.089C154.425 117.706 154.476 121.62 145.549 127.916L162.839 152.432L180.13 176.948C198.538 163.966 210.918 146.815 213.644 127.455C216.334 108.355 208.815 88.0139 190.778 77.4723L175.64 103.373ZM162.839 152.432L145.587 127.889C144.168 128.886 143.452 129.386 142.888 129.756C142.37 130.096 142.562 129.936 143.177 129.634C143.899 129.28 145.085 128.783 146.625 128.415C148.175 128.044 149.525 127.938 150.5 127.938V157.938V187.938C165.976 187.938 176.186 179.72 180.092 176.975L162.839 152.432ZM150.5 157.938V127.938C151.463 127.938 152.807 128.043 154.354 128.411C155.894 128.778 157.084 129.275 157.817 129.634C158.442 129.941 158.643 130.107 158.138 129.775C157.588 129.414 156.878 128.917 155.474 127.926L138.17 152.432L120.866 176.939C124.85 179.751 135.024 187.938 150.5 187.938V157.938ZM138.17 152.432L155.457 127.913C146.526 121.617 146.578 117.702 146.772 119.085C146.93 120.209 146.678 125.661 140.497 129.27L125.369 103.364L110.241 77.4574C92.193 87.9965 84.6684 108.343 87.358 127.449C90.0841 146.814 102.47 163.968 120.884 176.951L138.17 152.432Z" fill="white" mask="url(#path-3-inside-1_409_560)"/>
</svg>
